# xmcd
#
# Track frame offsets:
#	150
#	16711
#	38398
#	60557
#	79516
#	101940
#	123533
#	144720
#	160564
#	175023
#	196474
#
# Disc length: 2843 seconds
#
# Revision: 1
# Processed by: cddbd v1.5.2PL0 Copyright (c) Steve Scherf et al.
# Submitted via: EZCDAudioConverter 2.1.7.1
#
DISCID=820b190b
DTITLE=Gary Farr - Strange Fruit 
DYEAR=1900
DGENRE=
TTITLE0=In The Mud
TTITLE1=Old Man Boulder
TTITLE2=Strange Fruit 
TTITLE3=Margie
TTITLE4=Revolution Of The Season
TTITLE5=About This Time Of Year
TTITLE6=Down Among The Dead Men
TTITLE7=Proverbs Of Heaven And Hell
TTITLE8=Old Man Moses
TTITLE9=Sweet Angelina
TTITLE10=Revolution Of The Season [Single]
EXTD=
EXTT0=
EXTT1=
EXTT2=
EXTT3=
EXTT4=
EXTT5=
EXTT6=
EXTT7=
EXTT8=
EXTT9=
EXTT10=
PLAYORDER=
